<?xml version="1.0" encoding="utf-8"?>
<!-- Generator: Adobe Illustrator 21.0.0, SVG Export Plug-In . SVG Version: 6.00 Build 0)  -->
<svg version="1.1" id="Layer_1" xmlns="http://www.w3.org/2000/svg" xmlns:xlink="http://www.w3.org/1999/xlink" x="0px" y="0px"
	 viewBox="0 0 1366 768" style="enable-background:new 0 0 1366 768;" xml:space="preserve">
<style type="text/css">
	.st0{fill:#CCCCCC;}
</style>
<g>
	<path class="st0" d="M680,399.5c0-27.4,17.7-50.7,42.2-59.1l-42.6-73.7c-11.2,10.7-26.4,17.3-43.2,17.3c-34.5,0-62.5-28-62.5-62.5
		c0-5.4,0.7-10.7,2-15.7h-88.3c0.8,4.1,1.3,8.3,1.3,12.7c0,34.5-28,62.5-62.5,62.5c-15.2,0-29.2-5.5-40.1-14.5l-42.7,73.9
		c24.6,8.4,42.2,31.7,42.2,59.1c0,27.2-17.4,50.4-41.7,59l42.1,73c11-9.6,25.4-15.4,41.1-15.4c34.5,0,62.5,28,62.5,62.5
		c0,4.7-0.5,9.3-1.5,13.7h87c-1-4.4-1.5-9-1.5-13.7c0-34.5,28-62.5,62.5-62.5c16.4,0,31.3,6.3,42.4,16.6l42.8-74.2
		C697.4,449.9,680,426.7,680,399.5z M533,470c-39.2,0-71-31.8-71-71s31.8-71,71-71s71,31.8,71,71S572.2,470,533,470z"/>
</g>
</svg>
