<svg id="svg2" xmlns="http://www.w3.org/2000/svg" viewBox="0 0 504 149"><defs><style>.cls-1{fill:#ec6608;}.cls-2{isolation:isolate;font-size:32px;fill:#67707c;font-family:MyriadPro-BoldIt, Myriad Pro;font-weight:700;font-style:italic;}.cls-3{letter-spacing:0.01em;}.cls-4{letter-spacing:-0.01em;}</style></defs><title>OC-logo-BN-orange-gray</title><path class="cls-1" d="M255.3,80.4h5.3a26.73,26.73,0,0,0,4.8-.8,2.32,2.32,0,0,0,1.9-2.1c.3-1.3.5-2.7.8-3.7.3-.8-.3-1.1-.8-1.1-1.1,0-2.1.3-3.2.3a40.31,40.31,0,0,1-12.5,0c-2.9-.5-5.3-1.9-6.1-4.8A11.85,11.85,0,0,1,245,65c-.3-4.8.8-9.3,1.9-14.1.8-3.2,1.6-6.4,3.5-9.3a10.43,10.43,0,0,1,6.9-5.1,49.64,49.64,0,0,1,10.9,0,52.93,52.93,0,0,1,5.6.5c.8,0,1.3-.3,1.3-1.1.3-1.3.5-2.4.8-3.7.3-1.6,0-2.1-1.6-2.4a58,58,0,0,0-19.5,0c-7.2,1.1-12.5,4.8-15.5,11.5a69.16,69.16,0,0,0-5.1,27.2c.3,5.6,3.2,9.3,8.5,10.9A40.84,40.84,0,0,0,255.3,80.4Z"/><path class="cls-1" d="M162.7,43.6c-1.3,0-1.6.3-1.9,1.6-1.1,5.9-2.4,11.7-3.5,17.9a55.42,55.42,0,0,0-1.3,9.1c.3,2.7,1.3,4.8,3.5,5.9a12.47,12.47,0,0,0,2.9,1.1,44.27,44.27,0,0,0,19.5-.3,11.18,11.18,0,0,0,8.5-8c.3-1.1.5-2.1.8-3.2,1.6-7.7,2.9-15.2,4.3-22.9.3-1.1,0-1.3-1.1-1.3h-7.2c-1.1,0-1.6.3-1.6,1.3-1.1,5.9-2.1,11.7-3.2,17.6-.5,2.4-1.1,4.8-1.6,6.9a3.29,3.29,0,0,1-2.9,2.9,18.31,18.31,0,0,1-9.3,0c-1.3-.3-1.9-1.1-2.1-2.7V67.9c.3-2.1.8-4.3,1.1-6.7,1.1-5.6,2.1-10.9,3.2-16.3.3-1.3,0-1.3-1.3-1.3C168.3,43.8,163.8,43.6,162.7,43.6Z"/><path class="cls-1" d="M210.2,43.6c-4.5.8-8,3.2-9.1,8a10.55,10.55,0,0,0-.5,1.9c-.8,4,.5,6.4,4,8.3,1.1.5,2.4,1.1,3.7,1.6,2.1.8,4.3,1.9,6.4,2.7a2,2,0,0,1,1.6,1.9c.3,2.4-.8,4.3-3.2,4.5a39.15,39.15,0,0,1-5.9.5,73,73,0,0,1-8.3-.8c-1.1,0-1.6,0-1.9,1.3s-.5,2.7-.8,4.3a1.56,1.56,0,0,0,1.1,1.9c.3,0,.5.3.8.3a46.16,46.16,0,0,0,12.3.5c2.9-.3,5.9-.5,8.8-1.9,4.8-2.1,8.3-8.3,7.2-13.6a6,6,0,0,0-3.2-4.3,89.93,89.93,0,0,0-8.3-3.5c-1.1-.5-2.1-.8-3.2-1.3a2.33,2.33,0,0,1-1.3-2.9c.5-1.6,1.3-2.7,3.2-2.7a35.67,35.67,0,0,1,8,0,39.06,39.06,0,0,1,4.8.5c.8,0,1.6-.3,1.6-1.3a11.85,11.85,0,0,0,.5-3.2,1.56,1.56,0,0,0-1.1-1.9,3,3,0,0,0-1.6-.3C224.4,43,213.2,43,210.2,43.6Z"/><path class="cls-1" d="M396.7,51h4.8c.8,0,1.1-.3,1.3-1.1.3-1.6.5-3.2.8-4.5.3-1.1,0-1.3-1.1-1.3h-9.1c-1.3,0-1.6-.3-1.6-1.6,0-1.9.3-3.5.3-5.3,0-1.1-.3-1.3-1.3-1.3h-5.9c-1.1,0-1.3.5-1.6,1.3-2.1,10.7-4,21.3-6.1,32-.3,1.9-.8,3.7-.3,5.6.5,2.7,2.7,4,5.1,4.5,3.7,1.1,7.7.8,11.5.8a17.73,17.73,0,0,0,3.2-.5c.8-.3,1.6-.8,1.6-1.3a16.09,16.09,0,0,0,.8-4.8,1.09,1.09,0,0,0-.8-.8c-.3-.3-.8,0-1.1,0a62.56,62.56,0,0,1-7.5,0c-2.1-.3-3.2-1.6-2.7-3.7,1.1-5.6,2.1-11.2,3.2-16.5.3-1.1.5-1.3,1.6-1.3A43.55,43.55,0,0,1,396.7,51Z"/><path class="cls-1" d="M361.8,79.9h3.5c1.3,0,1.6-.3,1.9-1.6.8-4.5,1.6-9.1,2.7-13.6,1.3-6.7,2.4-13.1,3.7-19.7.3-1.3,0-1.6-1.3-1.6h-6.9c-1.3,0-1.6.3-1.9,1.6-1.3,6.9-2.7,13.9-4,20.8-.8,4.3-1.6,8.3-2.4,12.5-.3,1.1,0,1.6,1.3,1.6Z"/><path class="cls-1" d="M369.8,37.7h3.7c.8,0,1.3-.3,1.6-1.3.3-1.9.8-4,1.1-5.9.3-1.3,0-1.6-1.3-1.6h-6.7c-1.3,0-1.6.3-1.9,1.6-.3,1.9-.8,4-1.1,5.9-.3,1.1,0,1.3,1.1,1.3Z"/><path class="cls-1" d="M103.8,30.5a23.55,23.55,0,0,0-3.5-1.1c-5.1-1.1-10.1-.8-15.2-.3-7.5,1.1-13.1,4.8-16,12a68.29,68.29,0,0,0-3.5,12.5c-1.1,5.1-1.9,10.4-1.3,15.5.5,4.8,2.7,8.3,7.5,9.9,3.5,1.3,7.2,1.3,11.7,1.6,1.6,0,4-.3,6.4-.5,7.2-1.1,12.3-4.5,15.5-11.2a61.29,61.29,0,0,0,3.5-12c1.1-5.3,2.1-10.7,1.9-16.3C110.2,36.1,108.3,32.4,103.8,30.5ZM99,52.6a68,68,0,0,1-2.9,12.8A4.69,4.69,0,0,1,95,67.5c-1.6,3.5-4.5,5.1-8.3,5.3a62.71,62.71,0,0,1-7.5-.3c-2.9-.3-4.5-2.1-4.8-5.1-.5-3.5.3-6.9.8-10.4.8-4.3,1.9-8.3,2.9-12.5a17.93,17.93,0,0,1,1.6-3.7,8.6,8.6,0,0,1,6.9-4.3,18,18,0,0,1,4-.3c1.3,0,2.7.3,3.7.3,3.5.5,5.6,2.4,5.3,6.4A44.8,44.8,0,0,1,99,52.6Z"/><path class="cls-1" d="M346,43.8c5.3,1.1,7.5,3.7,7.5,9.1a37.45,37.45,0,0,1-4.3,18.4,16.24,16.24,0,0,1-13.6,8.8,30.36,30.36,0,0,1-11.2-.8c-1.1-.3-1.3,0-1.6,1.1-.8,4.5-1.6,9.9-2.7,14.4-.3,1.6-.5,2.7-2.1,2.7h-6.4c-1.3,0-1.6-.8-1.3-2.4,2.4-12.3,4.5-24.5,6.9-36.8a61.89,61.89,0,0,1,1.9-6.7,12,12,0,0,1,9.1-7.2C331.4,43.3,343.4,43,346,43.8ZM336.7,50c-1.1,0-2.1.3-3.2.3-2.7.5-4.5,1.6-5.3,4.5a25.35,25.35,0,0,0-1.3,5.1c-.5,3.2-1.1,6.4-1.3,9.6-.3,1.9.8,2.7,2.4,2.9,1.3.3,2.9.3,4.3.5,4.3,0,6.7-1.3,8-5.3a40.65,40.65,0,0,0,2.1-8.5,27.45,27.45,0,0,0,.3-5.1,3.52,3.52,0,0,0-3.5-3.7A19,19,0,0,1,336.7,50Z"/><path class="cls-1" d="M136,43a35.43,35.43,0,0,1,9.1.8c4.3,1.3,6.4,3.5,6.7,8a37.72,37.72,0,0,1-4.5,20c-2.9,5.1-7.5,7.5-13.1,8a32.13,32.13,0,0,1-11.5-.8c-.8-.3-1.3,0-1.3,1.1-.8,4.8-1.9,9.6-2.7,14.1-.3,1.1-.5,1.3-1.6,1.3h-6.9c-1.6,0-1.9-.3-1.6-1.9,1.1-5.9,2.1-11.5,3.2-17.3,1.1-6.4,2.4-12.5,3.7-18.9a42.74,42.74,0,0,1,1.3-4.8,12.48,12.48,0,0,1,10.7-9.3C130.2,43.3,136,42.8,136,43Zm-6.1,29.9c3.5,0,6.4-.8,8-4.3a31.55,31.55,0,0,0,2.9-13.9c0-2.9-1.3-4.3-4-4.5a19.53,19.53,0,0,0-5.9.3,5.13,5.13,0,0,0-4.8,4.5,31.81,31.81,0,0,0-1.3,5.1,88.93,88.93,0,0,0-1.3,8.8c-.3,2.1.5,2.9,2.7,3.5A10,10,0,0,0,129.9,72.9Z"/><path class="cls-1" d="M424,56.9h5.9c.8,0,1.3-.3,1.3-1.1a9.39,9.39,0,0,0,0-2.9,3.67,3.67,0,0,0-3.5-2.9,38.26,38.26,0,0,0-11.2.3c-1.6.3-2.9.5-4.5.8-1.1,0-1.3,0-1.1-1.3.3-1.1.3-2.4.5-3.5a2.78,2.78,0,0,1,1.9-1.9,22.06,22.06,0,0,1,5.9-1.1c3.2-.3,6.4-.3,9.6-.3a32.81,32.81,0,0,1,7.2,1.3c3.5,1.1,5.3,3.7,5.3,7.5a42,42,0,0,1-1.3,9.9c-1.1,5.6-2.1,11.2-3.2,16.8-.3,1.1-.5,1.3-1.6,1.3h-2.1a2.57,2.57,0,0,1-2.9-1.6c-.3-.5-.8-1.6-1.3-1.6-.3-.3-1.1.8-1.6,1.1a17.4,17.4,0,0,1-7.7,2.7,86.25,86.25,0,0,1-8.8-.3c-4.5-.8-6.4-3.2-6.1-8a66.25,66.25,0,0,1,1.3-6.7c1.3-4.5,4.8-6.7,9.3-7.2C418.1,57.2,423.7,56.9,424,56.9Zm-5.4,16.8c1.1,0,1.9-.3,2.9-.3,3.5-.8,6.4-2.4,7.2-6.1.3-1.1.5-2.1.8-3.2,0-.5,0-1.1-.8-1.1-3.2,0-6.4,0-9.6.3a3.71,3.71,0,0,0-3.5,2.4,14,14,0,0,0-1.1,5.6,2.15,2.15,0,0,0,1.9,2.1A6.66,6.66,0,0,0,418.6,73.7Z"/><path class="cls-1" d="M297.7,76.1c-.3,0-.3.3-.5.3a15.68,15.68,0,0,1-9.9,3.7,21.08,21.08,0,0,1-9.3-.8c-3.5-1.1-4.8-2.9-5.1-6.4a21.25,21.25,0,0,1,1.9-9.3,10.16,10.16,0,0,1,8-5.9,43,43,0,0,1,8-.5h6.4c1.6,0,1.9-.3,2.1-1.9a8.57,8.57,0,0,1,.3-1.3c0-1.9-.8-3.5-2.7-3.7a49.73,49.73,0,0,0-6.9-.5c-2.9.3-5.9.8-8.8,1.1h-1.1a.74.74,0,0,1-.8-.8,23.59,23.59,0,0,1,.8-4,3.44,3.44,0,0,1,2.1-1.6,24.37,24.37,0,0,1,6.1-1.1,63.72,63.72,0,0,1,10.7,0c2.1.3,4.3.8,6.4,1.3,3.2,1.1,4.5,4,4.5,7.2a52.32,52.32,0,0,1-1.1,9.6c-1.1,5.6-2.1,11.2-3.2,16.8a1.69,1.69,0,0,1-1.6,1.3h-.3c-4.3,0-3.7.3-5.6-2.9C298,76.4,297.7,76.4,297.7,76.1ZM287.3,74c1.1,0,2.1-.3,3.2-.3a8.12,8.12,0,0,0,6.9-5.6,28.32,28.32,0,0,0,.8-4c.3-.8-.3-1.1-.8-1.1h-8.5c-2.1,0-4,.5-4.8,2.9a14.23,14.23,0,0,0-.8,4.5,2.61,2.61,0,0,0,2.1,3.2A8.09,8.09,0,0,1,287.3,74Z"/><path class="cls-1" d="M226.8,43.3c.5,0,1.1.3,1.6.3a1.88,1.88,0,0,1,1.1,1.9,11.85,11.85,0,0,0-.5,3.2c-.3,1.1-.8,1.3-1.6,1.3a39.06,39.06,0,0,1-4.8-.5h-8a3,3,0,0,0-3.2,2.7c-.3,1.3,0,2.4,1.3,2.9a14.35,14.35,0,0,0,3.2,1.3c2.7,1.1,5.6,2.4,8.3,3.5a4.91,4.91,0,0,1,3.2,4.3c.8,5.3-2.4,11.5-7.2,13.6-2.7,1.3-5.9,1.6-8.8,1.9a46.16,46.16,0,0,1-12.3-.5c-.3,0-.5-.3-.8-.3a1.5,1.5,0,0,1-1.1-1.9c.3-1.3.5-2.7.8-4.3.3-1.1.5-1.3,1.9-1.3,2.7.3,5.6.5,8.3.8a23.55,23.55,0,0,0,5.9-.5,4.07,4.07,0,0,0,3.2-4.5,2.44,2.44,0,0,0-1.6-1.9c-2.1-.8-4.3-1.9-6.4-2.7-1.3-.5-2.4-1.1-3.7-1.6-3.5-1.9-4.8-4.3-4-8.3a7.67,7.67,0,0,1,.5-1.9c1.1-4.8,4.5-7.2,9.1-8C213.2,43,224.4,43,226.8,43.3Z"/><text class="cls-2" transform="translate(195.5 128.42)">Business Ne<tspan class="cls-3" x="162.24" y="0">t</tspan><tspan class="cls-4" x="173.66" y="0">w</tspan><tspan x="196.8" y="0">ork</tspan></text></svg>